<svg width="152" height="26" viewBox="0 0 152 26" fill="none" xmlns="http://www.w3.org/2000/svg">
<g clip-path="url(#clip0_1382_830)">
<path d="M40.7077 5.43801C40.7077 2.6261 38.8698 0 34.3747 0C26.2527 0 20.1603 8.95527 20.1603 17.3929C20.1603 22.082 22.9641 25.0342 27.3633 25.0342C33.5027 25.0342 36.7894 20.8154 38.0466 15.5632H31.0372C30.65 17.391 29.8777 18.9382 28.6674 18.9382C27.6996 18.9382 27.1697 18.1419 27.1697 16.4069C27.1697 15.8438 27.2186 15.2351 27.3144 14.6246C35.7747 14.344 40.7057 10.8741 40.7057 5.43611L40.7077 5.43801ZM33.0217 5.86084C33.7471 5.86084 34.1812 6.28367 34.1812 6.93972C34.1323 8.29922 32.441 9.65872 28.7671 9.84644C29.8308 7.59577 31.3285 5.86084 33.0217 5.86084Z" fill="white"/>
<path d="M56.2241 0.328125H42.9775L41.382 6.6573H44.9601L40.3203 24.7063H47.668L52.3078 6.6573H54.6286L56.2241 0.328125Z" fill="white"/>
<path d="M70.6258 0.328125H57.428L55.8326 6.6573H58.1534L53.5117 24.7063H60.8614L65.5011 6.6573H69.0303L70.6258 0.328125Z" fill="white"/>
<path d="M21.7068 5.2504C21.7068 2.10856 19.5795 0.328125 14.8909 0.328125H6.23705L-0.000106812 24.7063H8.36238C15.7101 24.7063 19.1904 21.3312 19.1904 16.5966C19.1904 14.3934 17.8374 12.6585 14.4529 12.3778L14.5018 12.1427C19.1904 11.6744 21.7048 8.72026 21.7048 5.2504H21.7068ZM8.84727 18.9876H8.41126L9.5707 14.5811H10.6343C12.2298 14.5811 12.8105 15.1442 12.8105 15.988C12.8105 17.5826 11.1192 18.9876 8.84727 18.9876ZM10.9746 10.2675H10.6363L11.7488 6.00125H12.8125C14.359 6.00125 14.842 6.46959 14.842 7.40816C14.842 9.04828 13.053 10.2675 10.9746 10.2675Z" fill="white"/>
<path d="M139.228 10.6884H138.986L140.292 0.328125H132.413L133.861 17.4404L131.977 24.7063H139.131L141.018 17.4404L151.169 0.328125H142.951L139.228 10.6884Z" fill="white"/>
<path d="M120.083 10.0798H113.894L114.765 6.6573H121.097L122.693 0.328125H109.206L102.969 24.7063H110.123L112.25 16.4089H118.438L120.083 10.0798Z" fill="white"/>
<path d="M126.511 18.3771L131.153 0.328125H123.997L117.762 24.7063H130.668L132.264 18.3771H126.511Z" fill="white"/>
<path d="M98.7187 13.7374L98.7676 13.4568C103.022 13.1287 105.875 9.98691 105.971 5.76809C106.066 2.39303 104.037 0.330078 98.7187 0.330078H90.452L84.168 24.7082H91.0816L93.2578 16.3635H94.5639C95.9169 16.3635 96.4018 16.8792 96.0616 18.2861L94.515 24.7082H101.718L102.733 18.5668C103.216 15.8003 102.152 14.1128 98.7207 13.7374H98.7187ZM95.0449 10.9236H94.7066L95.9638 6.04871H97.0275C98.6718 6.04871 99.2505 6.61185 99.2036 7.54852C99.1078 9.56408 97.2699 10.9236 95.0468 10.9236H95.0449Z" fill="white"/>
<path d="M77.8808 15.5651C77.4937 17.3929 76.7214 18.9401 75.5111 18.9401C74.5432 18.9401 74.0134 18.1438 74.0134 16.4088C74.0134 15.8457 74.0623 15.237 74.1581 14.6265C82.6183 14.3459 87.5494 10.876 87.5494 5.43801C87.5494 2.6261 85.7134 0 81.2164 0C73.0944 0 67.0039 8.95527 67.0039 17.3929C67.0039 22.082 69.8077 25.0342 74.2069 25.0342C80.3463 25.0342 83.6331 20.8154 84.8903 15.5632H77.8808V15.5651ZM79.8634 5.86084C80.5888 5.86084 81.0228 6.28367 81.0228 6.93972C80.974 8.29922 79.2827 9.65872 75.6088 9.84644C76.6725 7.59577 78.1702 5.86084 79.8634 5.86084Z" fill="white"/>
</g>
<defs>
<clipPath id="clip0_1382_830">
<rect width="151.168" height="25.0342" fill="white"/>
</clipPath>
</defs>
</svg>
