<svg width="144" height="25" viewBox="0 0 144 25" fill="none" xmlns="http://www.w3.org/2000/svg">
<g clip-path="url(#clip0_2066_48792)">
<path d="M38.9155 5.78405C38.9155 3.11638 37.1719 0.625 32.9074 0.625C25.2021 0.625 19.4221 9.12089 19.4221 17.1257C19.4221 21.5742 22.0821 24.375 26.2557 24.375C32.0801 24.375 35.1982 20.3726 36.391 15.3898H29.7411C29.3738 17.1239 28.6411 18.5917 27.4929 18.5917C26.5747 18.5917 26.072 17.8362 26.072 16.1903C26.072 15.6561 26.1184 15.0786 26.2093 14.4994C34.2355 14.2332 38.9137 10.9413 38.9137 5.78226L38.9155 5.78405ZM31.6238 6.18519C32.312 6.18519 32.7238 6.58633 32.7238 7.20873C32.6774 8.49849 31.0729 9.78826 27.5875 9.96634C28.5966 7.83113 30.0174 6.18519 31.6238 6.18519Z" fill="#0F1C14"/>
<path d="M53.6312 0.936523H41.0641L39.5504 6.94103H42.9449L38.5432 24.0641H45.514L49.9157 6.94103H52.1175L53.6312 0.936523Z" fill="#0F1C14"/>
<path d="M67.295 0.936523H54.7743L53.2606 6.94103H55.4624L51.0588 24.0641H58.0315L62.4332 6.94103H65.7814L67.295 0.936523Z" fill="#0F1C14"/>
<path d="M20.8866 5.6063C20.8866 2.62563 18.8684 0.936523 14.4203 0.936523H6.21042L0.293213 24.0641H8.22672C15.1975 24.0641 18.4993 20.8622 18.4993 16.3705C18.4993 14.2803 17.2157 12.6343 14.0048 12.3681L14.0512 12.1451C18.4993 11.7007 20.8847 8.89816 20.8847 5.6063H20.8866ZM8.68674 18.6388H8.2731L9.37307 14.4584H10.3821C11.8958 14.4584 12.4467 14.9926 12.4467 15.7931C12.4467 17.3059 10.8422 18.6388 8.68674 18.6388ZM10.7049 10.366H10.384L11.4395 6.31863H12.4485C13.9158 6.31863 14.3739 6.76295 14.3739 7.65337C14.3739 9.20936 12.6767 10.366 10.7049 10.366Z" fill="#0F1C14"/>
<path d="M132.38 10.7654H132.15L133.389 0.936523H125.914L127.288 17.171L125.5 24.0641H132.287L134.077 17.171L143.708 0.936523H135.912L132.38 10.7654Z" fill="#0F1C14"/>
<path d="M114.217 10.1879H108.346L109.171 6.94103H115.18L116.693 0.936523H103.898L97.9807 24.0641H104.768L106.786 16.1924H112.657L114.217 10.1879Z" fill="#0F1C14"/>
<path d="M120.313 18.0596L124.716 0.936523H117.927L112.012 24.0641H124.256L125.77 18.0596H120.313Z" fill="#0F1C14"/>
<path d="M93.9491 13.6575L93.9955 13.3913C98.0318 13.0801 100.738 10.0994 100.829 6.09704C100.92 2.89512 98.9945 0.937988 93.9491 0.937988H86.1065L80.1448 24.0656H86.7038L88.7683 16.1489H90.0074C91.291 16.1489 91.751 16.6382 91.4283 17.9729L89.961 24.0656H96.7946L97.7573 18.2392C98.2154 15.6147 97.2064 14.0137 93.951 13.6575H93.9491ZM90.4637 10.9881H90.1428L91.3355 6.36327H92.3446C93.9046 6.36327 94.4537 6.89752 94.4091 7.78615C94.3183 9.69831 92.5746 10.9881 90.4656 10.9881H90.4637Z" fill="#0F1C14"/>
<path d="M74.1747 15.3916C73.8074 17.1257 73.0747 18.5935 71.9265 18.5935C71.0083 18.5935 70.5056 17.838 70.5056 16.1921C70.5056 15.6579 70.552 15.0804 70.6429 14.5012C78.6691 14.235 83.3473 10.9431 83.3473 5.78405C83.3473 3.11638 81.6055 0.625 77.3392 0.625C69.6338 0.625 63.8557 9.12089 63.8557 17.1257C63.8557 21.5742 66.5157 24.375 70.6893 24.375C76.5137 24.375 79.6318 20.3726 80.8246 15.3898H74.1747V15.3916ZM76.0555 6.18519C76.7437 6.18519 77.1555 6.58633 77.1555 7.20873C77.1091 8.49849 75.5046 9.78826 72.0192 9.96634C73.0283 7.83113 74.4492 6.18519 76.0555 6.18519Z" fill="#0F1C14"/>
</g>
<defs>
<clipPath id="clip0_2066_48792">
<rect width="143.413" height="23.75" fill="white" transform="translate(0.293213 0.625)"/>
</clipPath>
</defs>
</svg>
